# ProBuilder 5.0.7
# https://unity3d.com/unity/features/worldbuilding/probuilder
# 4/28/2024 9:20:38 PM

mtllib ./Arch.mtl
o Arch

g Arch
v -0.5 -0.2499995 0.5
v -0.4000001 -0.2499995 0.5
v -0.5 -0.2499995 -0.5
v -0.4000001 -0.2499995 -0.5
v -0.4797463 -0.1076846 -0.5
v -0.4797463 -0.1076846 0.5
v -0.3837972 -0.136148 -0.5
v -0.3837972 -0.136148 0.5
v -0.4206266 0.0230999 -0.5
v -0.4206266 0.0230999 0.5
v -0.3365016 -0.03151989 -0.5
v -0.3365016 -0.03151989 0.5
v -0.3274302 0.1317601 -0.5
v -0.3274302 0.1317601 0.5
v -0.2619443 0.05540848 -0.5
v -0.2619443 0.05540848 0.5
v -0.2077074 0.2094927 -0.5
v -0.2077074 0.2094927 0.5
v -0.1661658 0.1175942 -0.5
v -0.1661658 0.1175942 0.5
v -0.07115746 0.25 -0.5
v -0.07115746 0.25 0.5
v -0.05692577 0.1500001 -0.5
v -0.05692577 0.1500001 0.5
v 0.07115746 0.25 -0.5
v 0.07115746 0.25 0.5
v 0.05692577 0.1500001 -0.5
v 0.05692577 0.1500001 0.5
v 0.2077074 0.2094927 -0.5
v 0.2077074 0.2094927 0.5
v 0.1661658 0.1175942 -0.5
v 0.1661658 0.1175942 0.5
v 0.3274302 0.1317601 -0.5
v 0.3274302 0.1317601 0.5
v 0.2619443 0.05540848 -0.5
v 0.2619443 0.05540848 0.5
v 0.4206266 0.02310038 -0.5
v 0.4206266 0.02310038 0.5
v 0.3365016 -0.03151989 -0.5
v 0.3365016 -0.03151989 0.5
v 0.4797463 -0.1076846 -0.5
v 0.4797463 -0.1076846 0.5
v 0.3837972 -0.136148 -0.5
v 0.3837972 -0.136148 0.5
v 0.5 -0.25 -0.5
v 0.5 -0.25 0.5
v 0.4000001 -0.25 -0.5
v 0.4000001 -0.25 0.5

vt -0.5 0.5
vt -0.4000001 0.5
vt -0.5 -0.5
vt -0.4000001 -0.5
vt -0.5 -0.3179537
vt -0.5 -0.1742048
vt 0.5 -0.3179537
vt 0.5 -0.1742048
vt 0.5 -0.1888655
vt 0.5 -0.3038642
vt -0.5 -0.1888655
vt -0.5 -0.3038642
vt -0.5 -0.2957368
vt -0.5 -0.1522108
vt 0.5 -0.2957368
vt 0.5 -0.1522108
vt 0.5 -0.1673289
vt 0.5 -0.2821501
vt -0.5 -0.1673289
vt -0.5 -0.2821501
vt -0.5 -0.2563062
vt -0.5 -0.1131538
vt 0.5 -0.2563062
vt 0.5 -0.1131538
vt 0.5 -0.1284755
vt 0.5 -0.2429977
vt -0.5 -0.1284755
vt -0.5 -0.2429977
vt 0.2028722 -0.5
vt 0.06012797 -0.5
vt 0.2028722 0.5
vt 0.06012797 0.5
vt -0.07533072 -0.5
vt -0.1895261 -0.5
vt -0.07533072 0.5
vt -0.1895261 0.5
vt 0.1395509 -0.5
vt -0.002880557 -0.5
vt 0.1395509 0.5
vt -0.002880557 0.5
vt -0.01191531 -0.5
vt -0.1258606 -0.5
vt -0.01191531 0.5
vt -0.1258606 0.5
vt 0.07115746 -0.5
vt -0.07115746 -0.5
vt 0.07115746 0.5
vt -0.07115746 0.5
vt 0.05692577 -0.5
vt -0.05692577 -0.5
vt 0.05692577 0.5
vt -0.05692577 0.5
vt 0.002880557 -0.5
vt -0.1395509 -0.5
vt 0.002880557 0.5
vt -0.1395509 0.5
vt 0.1258606 -0.5
vt 0.01191531 -0.5
vt 0.1258606 0.5
vt 0.01191531 0.5
vt -0.06012797 -0.5
vt -0.2028722 -0.5
vt -0.06012797 0.5
vt -0.2028722 0.5
vt 0.1895261 -0.5
vt 0.07533072 -0.5
vt 0.1895261 0.5
vt 0.07533072 0.5
vt 0.4000001 0.5
vt 0.5 0.5
vt 0.4000001 -0.5
vt 0.5 -0.5
vt -0.5 -0.2499995
vt -0.4797463 -0.1076846
vt -0.4000001 -0.2499995
vt -0.3837972 -0.136148
vt 0.4797463 -0.1076846
vt 0.5 -0.2499995
vt 0.3837972 -0.136148
vt 0.4000001 -0.2499995
vt -0.4206266 0.0230999
vt -0.3365016 -0.03151989
vt 0.4206266 0.0230999
vt 0.3365016 -0.03151989
vt -0.3274302 0.1317601
vt -0.2619443 0.05540848
vt 0.3274302 0.1317601
vt 0.2619443 0.05540848
vt -0.2077074 0.2094927
vt -0.1661658 0.1175942
vt 0.2077074 0.2094927
vt 0.1661658 0.1175942
vt -0.07115746 0.25
vt -0.05692577 0.1500001
vt 0.07115746 0.25
vt 0.05692577 0.1500001
vt 0.5 -0.25
vt 0.4000001 -0.25
vt -0.5 -0.25
vt -0.4000001 -0.25

vn 0 -1 0
vn -0.9900244 0.1408961 0
vn -0.960234 0.2791966 0
vn 0.9602343 -0.2791953 0
vn 0.9900243 -0.1408966 0
vn -0.8436536 0.5368879 0
vn 0.8436545 -0.5368866 0
vn -0.658527 0.7525572 0
vn 0.6585258 -0.7525582 0
vn -0.4187976 0.9080796 0
vn 0.4187961 -0.9080803 0
vn -0.1436904 0.9896227 0
vn 0.1436903 -0.9896227 0
vn 0.1436904 0.9896227 0
vn -0.1436903 -0.9896227 0
vn 0.4187976 0.9080796 0
vn -0.4187961 -0.9080803 0
vn 0.6585261 0.7525579 0
vn -0.6585258 -0.7525582 0
vn 0.8436534 0.5368882 0
vn -0.8436545 -0.5368866 0
vn 0.9602342 0.2791958 0
vn -0.9112262 -0.4119063 0
vn 0.9900244 0.1408956 0
vn -0.9900244 -0.140896 0
vn 0 0 1
vn 0 0 -1

usemtl ProBuilderDefault
f 3/3/1 4/4/1 2/2/1 1/1/1
f 1/7/2 6/8/3 5/6/3 3/5/2
f 8/11/4 2/12/5 4/10/5 7/9/4
f 6/15/3 10/16/6 9/14/6 5/13/3
f 12/19/7 8/20/4 7/18/4 11/17/7
f 10/23/6 14/24/8 13/22/8 9/21/6
f 16/27/9 12/28/7 11/26/7 15/25/9
f 14/31/8 18/32/10 17/30/10 13/29/8
f 20/35/11 16/36/9 15/34/9 19/33/11
f 18/39/10 22/40/12 21/38/12 17/37/10
f 24/43/13 20/44/11 19/42/11 23/41/13
f 22/47/12 26/48/14 25/46/14 21/45/12
f 28/51/15 24/52/13 23/50/13 27/49/15
f 26/55/14 30/56/16 29/54/16 25/53/14
f 32/59/17 28/60/15 27/58/15 31/57/17
f 30/63/16 34/64/18 33/62/18 29/61/16
f 36/67/19 32/68/17 31/66/17 35/65/19
f 34/22/18 38/21/20 37/23/20 33/24/18
f 40/26/21 36/25/19 35/27/19 39/28/21
f 38/14/20 42/13/22 41/15/22 37/16/20
f 44/18/23 40/17/21 39/19/21 43/20/23
f 42/6/22 46/5/24 45/7/24 41/8/22
f 48/10/25 44/9/25 43/11/25 47/12/25
f 47/71/1 45/72/1 46/70/1 48/69/1
f 2/75/26 8/76/26 6/74/26 1/73/26
f 7/79/27 4/80/27 3/78/27 5/77/27
f 8/76/26 12/82/26 10/81/26 6/74/26
f 11/84/27 7/79/27 5/77/27 9/83/27
f 12/82/26 16/86/26 14/85/26 10/81/26
f 15/88/27 11/84/27 9/83/27 13/87/27
f 16/86/26 20/90/26 18/89/26 14/85/26
f 19/92/27 15/88/27 13/87/27 17/91/27
f 20/90/26 24/94/26 22/93/26 18/89/26
f 23/96/27 19/92/27 17/91/27 21/95/27
f 24/94/26 28/96/26 26/95/26 22/93/26
f 27/94/27 23/96/27 21/95/27 25/93/27
f 28/96/26 32/92/26 30/91/26 26/95/26
f 31/90/27 27/94/27 25/93/27 29/89/27
f 32/92/26 36/88/26 34/87/26 30/91/26
f 35/86/27 31/90/27 29/89/27 33/85/27
f 36/88/26 40/84/26 38/83/26 34/87/26
f 39/82/27 35/86/27 33/85/27 37/81/27
f 40/84/26 44/79/26 42/77/26 38/83/26
f 43/76/27 39/82/27 37/81/27 41/74/27
f 44/79/26 48/98/26 46/97/26 42/77/26
f 47/100/27 43/76/27 41/74/27 45/99/27

