# ProBuilder 5.0.7
# https://unity3d.com/unity/features/worldbuilding/probuilder
# 7/13/2023 3:30:24 PM

mtllib ./Stairs.mtl
o Stairs

g Stairs
v -10 -10 -10
v 10 -10 -10
v -10 0 -10
v 10 0 -10
v -10 0 0
v 10 0 0
v -10 10 0
v 10 10 0
v -10 10 10
v 10 10 10
v 10 -10 0
v 10 -10 10
v -10 -10 0
v -10 -10 10

vt 10 -10
vt -10 -10
vt 10 0
vt -10 0
vt 10 10
vt -10 10
vt 0 -10
vt 0 0
vt 0 10

vn 0 0 -1
vn 0 1 0
vn 1 0 0
vn -1 0 0
vn 0 0 1

usemtl ProBuilderDefault
f 6/8/3 8/9/3 10/6/3
f 9/5/4 7/9/4 5/8/4
f 4/4/1 2/2/1 1/1/1
f 1/1/1 3/3/1 4/4/1
f 6/4/2 4/2/2 3/1/2
f 3/1/2 5/3/2 6/4/2
f 8/6/1 6/4/1 5/3/1
f 5/3/1 7/5/1 8/6/1
f 10/6/2 8/4/2 7/3/2
f 7/3/2 9/5/2 10/6/2
f 6/8/3 11/7/3 2/1/3
f 2/1/3 4/3/3 6/8/3
f 10/6/3 12/2/3 11/7/3
f 11/7/3 6/8/3 10/6/3
f 3/4/4 1/2/4 13/7/4
f 13/7/4 5/8/4 3/4/4
f 5/8/4 13/7/4 14/1/4
f 14/1/4 9/5/4 5/8/4
f 9/6/5 14/2/5 12/1/5
f 12/1/5 10/5/5 9/6/5

