# ProBuilder 5.0.7
# https://unity3d.com/unity/features/worldbuilding/probuilder
# 7/25/2023 4:03:24 PM

mtllib ./Tetrahedron.mtl
o Tetrahedron

g Cone
v -10 -10 0
v 4.371139E-07 -10 10
v 0 10 0
v 0 -10 0
v 10 -10 -8.742278E-07
v -1.192488E-07 -10 -10

vt 0 0
vt 28.28427 0
vt 14.14214 24.4949
vt -10 0
vt 4.371139E-07 10
vt 10 -8.742278E-07
vt -1.192488E-07 -10

vn -0.8944272 0.4472136 0
vn 7.996803E-08 0.4472136 0.8944272
vn 4.470348E-08 1 -8.940697E-08
vn 0 -1 0
vn 0.8944272 0.4472136 -3.998401E-08
vn -3.998401E-08 0.4472136 -0.8944272

usemtl ProBuilderDefault
f 1/1/1 2/2/2 3/3/3
f 4/1/4 2/5/4 1/4/4
f 2/1/2 5/2/5 3/3/3
f 4/1/4 5/6/4 2/5/4
f 5/1/5 6/2/6 3/3/3
f 4/1/4 6/7/4 5/6/4
f 6/1/6 1/2/1 3/3/3
f 4/1/4 1/4/4 6/7/4

